<?xml version='1.0' encoding='utf-8'?>
<svg xmlns:xlink="http://www.w3.org/1999/xlink" xmlns="http://www.w3.org/2000/svg" version="1.1" id="Warstwa_1" x="0px" y="0px" width="513.132px" height="457.576px" viewBox="0 0 513.132 457.576" enable-background="new 0 0 513.132 457.576"> <rect x="-12.914" y="-13.356" fill-rule="evenodd" clip-rule="evenodd" fill="#FFFFFF" width="539.394" height="479.797"></rect> <path fill="#E3E3E3" d="M202.151,366.127c0,0-103.121,7.285-60.384,17.032c27.68,6.312,102.317-7.826,121.428-6.868 c19.112,0.958,114.411,2.142,129.906-1.281c15.495-3.424,1.871-10.084-22.051-11.925c-23.921-1.84-100.434-10.066-100.434-10.066 L202.151,366.127z"></path> <path fill="#ABABAB" d="M197.081,369.242c0,0-72.687,6.341-49.988,11.266c22.699,4.924,81.72-4.489,99.557-5.721 c17.838-1.23,72.742-4.924,85.966-4.187c13.224,0.739,49.38,1.224,43.957-1.358c-5.424-2.58-25.31-6.157-25.31-6.157l-77.792-7.309 L197.081,369.242z"></path> <path d="M207.143,366.859c0,0-61.688,5.218-42.424,9.271c19.264,4.052,69.355-3.694,84.493-4.709 c15.139-1.012,61.734-4.052,72.958-3.444c11.222,0.607,41.908,1.007,37.306-1.118c-4.604-2.124-21.48-5.067-21.48-5.067 l-66.021-6.016L207.143,366.859z"></path> <g> <defs> <rect id="SVGID_1_" x="46.457" y="13.198" width="415.202" height="386.286"></rect> </defs> <clipPath id="SVGID_2_"> <use xlink:href="#SVGID_1_" overflow="visible"></use> </clipPath> </g> <path fill-rule="evenodd" clip-rule="evenodd" fill="#EFDEBA" d="M301.945,77.144c0,0-101.943-8.407-130.922,100.825 c-27.074,102.05,27.33,163.92,83.335,182.998c11.649,3.969,23.367,6.086,34.437,6.328c64.286,1.406,22.771-73.648,22.771-73.648 S361.945,70.092,301.945,77.144z"></path> <path fill-rule="evenodd" clip-rule="evenodd" fill="#506720" d="M253.764,361.229l14.657-9.218l11.46,14.715 c0,0-2.742-0.209-12.537-2.102c-9.188-1.775-12.467-3.405-12.467-3.405L253.764,361.229z"></path> <path fill-rule="evenodd" clip-rule="evenodd" fill="#F24D4E" d="M196.656,147.971c0,0,31.004-47.024,87.324-55.904l-18.059,127.88 l-9.542,69.267l-43.408-75.766L196.656,147.971z"></path> <path fill-rule="evenodd" clip-rule="evenodd" fill="#3D411C" d="M188.731,64.719c0,0-41.005-6.773-80.187,60.4 c0,0-23.229,34.757-21.776,72.421l1.741,13.9l19.191,6.401c0,0-1.118-26.167,4.434-46.784c5.552-20.617,12.136-51.003,28.623-69.716 c16.486-18.713,40.812-30.506,40.812-30.506L188.731,64.719z"></path> <path fill-rule="evenodd" clip-rule="evenodd" fill="#A2A554" d="M93.028,206.112c0,0-8.347-10.3-2.541-13.308 c5.807-3.008-2.542-3.35,0.825-9.133s1.262-11.094,3.929-14.998c2.667-3.904,0.887-11.106,5.612-15.88 c4.725-4.774,6.198-14.071,8.287-17.091c2.089-3.021,4.612-9.189,7.084-11.757c2.471-2.566,1.983,8.408-1.607,12.507 c-3.59,4.1-1.594,13.535-4.913,15.881c-3.319,2.346,2.491,11.037-3.744,13.15s0.965,20.604-5.158,18.322 c-6.123-2.284-0.934,16.845-0.934,16.845L93.028,206.112z"></path> <path fill-rule="evenodd" clip-rule="evenodd" fill="#EFDEBA" d="M191.335,67.667c0,0-2.525,13.542,5.14,31.557 c7.665,18.016,14.504,37.364,17.989,48.634c3.485,11.27,9.991,36.201,14.406,50.276s10.952,36.843,13.489,45.933 c2.538,9.089-1.358,17.878-1.358,17.878l-71.264-21.793l-26.388-14.646l-29.946-9.339l-6.509-3.753c0,0-3.461-18.805,4.891-48.57 c8.352-29.765,27.937-85.797,76.751-100.79L191.335,67.667z"></path> <path fill-rule="evenodd" clip-rule="evenodd" fill="#F87061" d="M190.682,72.93c0.092,7.481,3.031,19.802,5.793,26.294 c7.665,18.016,14.504,37.364,17.989,48.634c3.485,11.27,9.991,36.201,14.406,50.276s10.952,36.843,13.489,45.933 c2.538,9.089-1.358,17.878-1.358,17.878l-46.148-14.113c-34.028-15.333-78.52-31.292-78.52-31.292 c-1.175-0.021-5.151-40.61,17.903-88.81C154.057,86.294,182.104,72.949,190.682,72.93z"></path> <polygon fill-rule="evenodd" clip-rule="evenodd" fill="#F04E3F" points="115.317,199.016 115.016,205.765 142.275,204.568 "></polygon> <polygon fill-rule="evenodd" clip-rule="evenodd" fill="#F04E3F" points="115.219,205.199 115.296,211.886 142.784,210.948 "></polygon> <polygon fill-rule="evenodd" clip-rule="evenodd" fill="#F04E3F" points="119.665,167.058 118.167,173.429 145.102,175.167 "></polygon> <polygon fill-rule="evenodd" clip-rule="evenodd" fill="#F04E3F" points="121.435,159.83 119.34,167.455 145.438,171.128 "></polygon> <polygon fill-rule="evenodd" clip-rule="evenodd" fill="#F04E3F" points="123.437,154.292 121.228,160.41 147.16,165.94 "></polygon> <polygon fill-rule="evenodd" clip-rule="evenodd" fill="#F04E3F" points="125.323,148.844 123.316,155.524 149.385,160.374 "></polygon> <polygon fill-rule="evenodd" clip-rule="evenodd" fill="#F04E3F" points="126.688,143.56 125.124,150.051 151.187,154.929 "></polygon> <polygon fill-rule="evenodd" clip-rule="evenodd" fill="#F04E3F" points="128.447,137.437 126.882,143.929 152.945,148.806 "></polygon> <polygon fill-rule="evenodd" clip-rule="evenodd" fill="#F04E3F" points="131.138,131.269 128.441,138.039 153.641,143.33 "></polygon> <polygon fill-rule="evenodd" clip-rule="evenodd" fill="#F04E3F" points="133.82,124.658 130.63,132.42 155.535,138.285 "></polygon> <polygon fill-rule="evenodd" clip-rule="evenodd" fill="#F04E3F" points="136.449,118.469 133.114,125.792 158.721,132.922 "></polygon> <polygon fill-rule="evenodd" clip-rule="evenodd" fill="#F04E3F" points="139.305,112.914 135.973,119.279 160.36,129.112 "></polygon> <polygon fill-rule="evenodd" clip-rule="evenodd" fill="#F04E3F" points="142.243,108.11 138.351,114.4 162.913,123.605 "></polygon> <polygon fill-rule="evenodd" clip-rule="evenodd" fill="#F04E3F" points="145.937,102.065 141.282,109.031 165.599,118.944 "></polygon> <polygon fill-rule="evenodd" clip-rule="evenodd" fill="#F04E3F" points="149.48,97.277 145.216,103.11 166.966,114.357 "></polygon> <polygon fill-rule="evenodd" clip-rule="evenodd" fill="#F04E3F" points="154.312,91.586 148.901,98.075 170.295,110.567 "></polygon> <polygon fill-rule="evenodd" clip-rule="evenodd" fill="#F04E3F" points="158.665,86.417 153.123,92.312 172.883,105.58 "></polygon> <polygon fill-rule="evenodd" clip-rule="evenodd" fill="#F04E3F" points="162.88,83.029 157.291,87.601 176.762,101.674 "></polygon> <polygon fill-rule="evenodd" clip-rule="evenodd" fill="#F04E3F" points="167.475,79.771 162.13,83.981 180.999,98.055 "></polygon> <polygon fill-rule="evenodd" clip-rule="evenodd" fill="#F04E3F" points="173.907,76.4 166.846,80.488 184.963,94.527 "></polygon> <polygon fill-rule="evenodd" clip-rule="evenodd" fill="#F04E3F" points="180.008,74.292 171.974,77.931 190.092,91.97 "></polygon> <polygon fill-rule="evenodd" clip-rule="evenodd" fill="#F04E3F" points="186.976,71.554 179.209,75.231 193.311,90.45 "></polygon> <path fill-rule="evenodd" clip-rule="evenodd" fill="#F04E3F" d="M191.092,69.673c-0.166,1.934-0.289,5.185,0.126,9.401 l-6.093-6.575L191.092,69.673z"></path> <polygon fill-rule="evenodd" clip-rule="evenodd" fill="#F04E3F" points="115.473,193.069 114.889,199.748 142.297,198.952 "></polygon> <polygon fill-rule="evenodd" clip-rule="evenodd" fill="#F04E3F" points="115.504,186.631 115.188,193.17 142.21,193.716 "></polygon> <polygon fill-rule="evenodd" clip-rule="evenodd" fill="#F04E3F" points="116.598,180.164 115.793,186.81 142.303,187.818 "></polygon> <polygon fill-rule="evenodd" clip-rule="evenodd" fill="#F04E3F" points="117.895,173.143 116.306,180.379 142.881,181.409 "></polygon> <path fill-rule="evenodd" clip-rule="evenodd" fill="#F3EAD5" d="M114.509,214.878c0,0-3.509-13.09-1.196-32.625 c2.959-24.994,9.142-40.089,14.504-52.165c5.242-11.804,10.559-20.427,15.818-28.237c6.827-10.139,19.341-21.569,29.466-26.988 c10.078-5.395,12.729-5.18,18.14-6.134l-0.287,3.013c0,0-10.141,3.524-15.808,6.932c-6.899,4.15-11.866,6.515-19.695,15.813 c-17.929,21.293-21.362,29.652-28.041,49.456c-4.963,14.716-8.835,37.835-8.693,51.78c0.068,6.579-0.091,8.74,0.874,15.26 C120.554,217.503,114.509,214.878,114.509,214.878z"></path> <path fill-rule="evenodd" clip-rule="evenodd" fill="#F33248" d="M253.08,252.31c0,0-21.851-2.321-29.135-5.726 s-28.161-12.905-48.989-19.009c-20.829-6.105-24.827-9.439-38.884-14.894c-14.056-5.455-29.767-6.737-38.177-9.694 c-6.093-2.143-5.496-3.794-8.917-4.657c-1.301-0.327-3.183-0.542-6.234-0.625c-11.077-0.302-5.154-3.342-14.531-6.954 c0,0-30.273,56.787,15.001,124.695c37.813,56.715,92.555,57.251,119.703,59.786c27.148,2.536,55.006-11.415,73.439-27.824 C296.341,329.617,253.08,252.31,253.08,252.31z"></path> <path fill-rule="evenodd" clip-rule="evenodd" fill="#E9CC9E" d="M265.35,356.494c-17.526,12.104-40.466,20.79-62.433,18.739 c-27.147-2.535-81.89-3.071-119.703-59.786C37.939,247.54,68.212,190.752,68.212,190.752c9.377,3.612,3.454,6.652,14.531,6.954 c0.84,0.022,1.592,0.056,2.267,0.098c-1.424,4.523-8.034,10.925-8.424,14.717c-0.734,7.144,2.292,15.178,3.302,19.579 c1.009,4.401,1.881,13.983,5.478,16.667c4.354,3.248,1.236,8.649,4.345,12.231c3.109,3.582,3.32,7.503,6.285,12.155 c2.966,4.651,3.018,7.306,5.755,11.309c2.738,4.004,3.633,10.832,7.613,13.656c3.981,2.823,6.875,14.161,11.407,16.837 c4.532,2.676,2.094,6.925,10.058,8.001c0,0,2.736,8.909,8.467,8.686c0,0,6.333,7.073,9.365,6.337c0,0,4.578,7.114,9.987,7.636 c0,0,10.866,8.14,16.874,8.829c0,0,10.952,8.171,15.769,5.766c0,0,6.187,6.629,12.775,3.618c0,0,10.16,6.517,17.381,1.985 c0,0,12.083,0.446,16.804-3.987c0,0,8.052,1.18,12.728-4.89c0,0,9.684-0.104,14.446-13.643l10.337-9.186l4.769,6.414 c-0.458,1.519,0.627,3.619-0.153,4.849C277.358,347.948,271.146,351.572,265.35,356.494z"></path> <path fill-rule="evenodd" clip-rule="evenodd" fill="#3D411C" d="M240.741,369.29c-12.058,4.668-25.021,7.139-37.825,5.943 c-27.147-2.535-81.89-3.071-119.703-59.786C37.939,247.54,68.212,190.752,68.212,190.752c1.169,0.45,2.101,0.892,2.856,1.32 c-1.921,4.037-9.781,25.342,11.088,70.992c23.37,51.119,43.005,73.217,76.097,93.825 C185.358,373.767,210.254,380.466,240.741,369.29z"></path> <path fill-rule="evenodd" clip-rule="evenodd" fill="#A2A554" d="M68.952,263.351c0,0-1.67,10.879,3.392,14.809 c5.063,3.93,7.668,6.104,8.163,13.149c0.496,7.046,4.709,15.814,4.709,15.814s0.933,11.268,8.339,13.758 c7.405,2.49,11.836,13.72,11.836,13.72l13.919,7.654c0,0,1.949-9.167-3.443-9.989c-5.392-0.823-7.653-12.358-14.986-14.623 c-7.334-2.266-2.999-13.547-8.521-15.676c-5.521-2.13-11.853-10.658-11.853-10.658l-0.551-18.476L68.952,263.351z"></path> <path fill-rule="evenodd" clip-rule="evenodd" fill="#4D3020" d="M328.741,80.008c0,0-4.631-12.606-7.787-18.117 c0,0,0.226-4.242,3.609-3.053c0,0,11.218,18.078,12.772,21.844C338.889,84.448,328.741,80.008,328.741,80.008z"></path> <polygon fill-rule="evenodd" clip-rule="evenodd" fill="#F87061" points="74.408,199.091 105.666,206.442 73.969,205.189 "></polygon> <path fill-rule="evenodd" clip-rule="evenodd" fill="#F87061" d="M74.649,195.243c1.128,1.375,2.226,2.304,8.094,2.464 c3.052,0.083,4.934,0.297,6.234,0.625c2.687,0.678,2.896,1.841,5.811,3.347l-20.543-0.812L74.649,195.243z"></path> <polygon fill-rule="evenodd" clip-rule="evenodd" fill="#F87061" points="74.94,204.644 104.897,210.429 75.034,210.931 "></polygon> <polygon fill-rule="evenodd" clip-rule="evenodd" fill="#F87061" points="74.902,210.341 105.651,214.862 75.311,217.012 "></polygon> <polygon fill-rule="evenodd" clip-rule="evenodd" fill="#F87061" points="75.357,216.925 105.971,219.831 76.501,223.568 "></polygon> <polygon fill-rule="evenodd" clip-rule="evenodd" fill="#F87061" points="76.618,222.529 107.156,225.37 78.156,229.34 "></polygon> <polygon fill-rule="evenodd" clip-rule="evenodd" fill="#F87061" points="77.592,228.485 110.188,231.433 79.664,235.11 "></polygon> <polygon fill-rule="evenodd" clip-rule="evenodd" fill="#F87061" points="79.273,235.457 110.451,237.024 80.906,242.003 "></polygon> <polygon fill-rule="evenodd" clip-rule="evenodd" fill="#F87061" points="80.127,241.006 111.781,242.4 82.329,247.866 "></polygon> <polygon fill-rule="evenodd" clip-rule="evenodd" fill="#F87061" points="81.306,247.204 112.091,248.678 83.622,254.378 "></polygon> <polygon fill-rule="evenodd" clip-rule="evenodd" fill="#F87061" points="83.843,253.554 114.153,253.965 87.504,261.349 "></polygon> <polygon fill-rule="evenodd" clip-rule="evenodd" fill="#F87061" points="88.295,260.757 116.565,259.106 90.104,267.368 "></polygon> <polygon fill-rule="evenodd" clip-rule="evenodd" fill="#F87061" points="90.372,266.83 119.102,264.625 92.97,273.433 "></polygon> <polygon fill-rule="evenodd" clip-rule="evenodd" fill="#F87061" points="93.974,273.157 120.424,269.816 96.572,279.76 "></polygon> <polygon fill-rule="evenodd" clip-rule="evenodd" fill="#F87061" points="96.578,279.003 122.054,274.821 112.774,279.197 99.177,285.606 "></polygon> <polygon fill-rule="evenodd" clip-rule="evenodd" fill="#F87061" points="99.95,284.561 124.601,280.051 103.486,291.722 "></polygon> <polygon fill-rule="evenodd" clip-rule="evenodd" fill="#F87061" points="103.597,290.693 126.818,284.373 106.196,297.297 "></polygon> <polygon fill-rule="evenodd" clip-rule="evenodd" fill="#F87061" points="107.19,296.449 130.623,289.707 111.267,303.45 "></polygon> <polygon fill-rule="evenodd" clip-rule="evenodd" fill="#F87061" points="110.809,303.043 133.669,294.047 115.425,310.341 "></polygon> <polygon fill-rule="evenodd" clip-rule="evenodd" fill="#F87061" points="114.766,309.861 136.852,298.638 119.877,315.86 "></polygon> <polygon fill-rule="evenodd" clip-rule="evenodd" fill="#F87061" points="119.578,315.723 140.961,302.481 124.726,321.571 "></polygon> <polygon fill-rule="evenodd" clip-rule="evenodd" fill="#F87061" points="124.666,320.995 145.717,306.618 130.581,327.196 "></polygon> <polygon fill-rule="evenodd" clip-rule="evenodd" fill="#F87061" points="130.268,326.339 149.99,310.6 136.183,332.54 "></polygon> <polygon fill-rule="evenodd" clip-rule="evenodd" fill="#F87061" points="136.004,332.001 155.743,314.716 143.198,337.03 "></polygon> <polygon fill-rule="evenodd" clip-rule="evenodd" fill="#F87061" points="142.936,336.909 161.121,319.211 151.225,342.542 "></polygon> <polygon fill-rule="evenodd" clip-rule="evenodd" fill="#F87061" points="151.213,342.146 167.548,323.201 158.288,346.981 "></polygon> <polygon fill-rule="evenodd" clip-rule="evenodd" fill="#F87061" points="157.879,346.121 174.473,326.931 166.153,350.47 "></polygon> <polygon fill-rule="evenodd" clip-rule="evenodd" fill="#F87061" points="165.955,350.451 181.71,331.24 174.116,354.572 "></polygon> <polygon fill-rule="evenodd" clip-rule="evenodd" fill="#F87061" points="173.692,353.098 189.82,334.844 182.786,357.329 "></polygon> <polygon fill-rule="evenodd" clip-rule="evenodd" fill="#F87061" points="181.396,357.025 196.506,338.065 188.556,360.477 "></polygon> <polygon fill-rule="evenodd" clip-rule="evenodd" fill="#F87061" points="188.475,359.218 202.876,341.143 195.549,364.055 "></polygon> <polygon fill-rule="evenodd" clip-rule="evenodd" fill="#F87061" points="195.233,363.277 208.241,342.818 203.613,366.793 "></polygon> <polygon fill-rule="evenodd" clip-rule="evenodd" fill="#F87061" points="203.124,365.539 212.902,344.156 212.547,367.218 "></polygon> <polygon fill-rule="evenodd" clip-rule="evenodd" fill="#F87061" points="211.32,366.482 219.938,344.616 220.744,368.161 "></polygon> <polygon fill-rule="evenodd" clip-rule="evenodd" fill="#F87061" points="220.054,367.604 224.61,345.383 228.258,366.103 "></polygon> <polygon fill-rule="evenodd" clip-rule="evenodd" fill="#F87061" points="227.47,365.701 231.125,344.24 235.164,365.533 "></polygon> <polygon fill-rule="evenodd" clip-rule="evenodd" fill="#F87061" points="234.2,365.173 237.452,342.584 242.365,363.012 "></polygon> <polygon fill-rule="evenodd" clip-rule="evenodd" fill="#F87061" points="241.968,362.758 243.262,341.023 248.62,360.044 "></polygon> <polygon fill-rule="evenodd" clip-rule="evenodd" fill="#F87061" points="248.396,359.695 249.114,339.321 255.312,356.923 "></polygon> <polygon fill-rule="evenodd" clip-rule="evenodd" fill="#F87061" points="254.593,356.747 253.783,337.216 260.665,352.855 "></polygon> <polygon fill-rule="evenodd" clip-rule="evenodd" fill="#F87061" points="259.806,353.019 258.996,333.487 265.88,349.127 "></polygon> <path fill-rule="evenodd" clip-rule="evenodd" fill="#EFDEBA" d="M269.546,349.272c0,0-19.734,14.169-40.652,18.089 s-27.174-1.652-40.351-4.312c-13.176-2.657-26.839-11.602-35.593-17.263c-8.755-5.662-15.888-9.419-23.434-17.42 c-7.547-8.001-18.013-22.357-25.108-32.812c-7.097-10.453-10.633-18.258-15.356-26.988c-5.21-9.628-7.454-20.295-9.032-26.775 c-1.938-7.955-4.384-16.034-5.375-25.736c-1.15-11.255-0.831-21.929-0.831-21.929l7.482,3.886c0,0-0.064,22.243,4.106,36.631 c4.169,14.39,4.674,22.635,11.84,36.103c7.166,13.467,5.393,14.936,16.496,29.275c11.103,14.338,11.066,15.378,22.802,27.064 c11.735,11.686,7.86,8.26,21.749,17.149c13.889,8.891,11.132,8.802,27.34,13.005c14.062,3.648,20.76,6.384,32.33,5.929 c9.265-0.364,21.438-2.949,28.03-6.16c9.198-4.479,19.435-12.242,19.435-12.242L269.546,349.272z"></path> <path fill-rule="evenodd" clip-rule="evenodd" fill="#D7293C" d="M147.698,244.894c0.175-3.016-21.495-4.248-21.019,4.916 C127.155,258.973,147.226,253.075,147.698,244.894z"></path> <path fill-rule="evenodd" clip-rule="evenodd" fill="#D7293C" d="M170.892,253.403c0.92-2.877-19.761-9.463-21.581-0.47 S168.398,261.21,170.892,253.403z"></path> <path fill-rule="evenodd" clip-rule="evenodd" fill="#D7293C" d="M163.36,269.009c-0.254-4.125-26.723,2.473-24.73,14.623 C140.624,295.782,164.051,280.198,163.36,269.009z"></path> <path fill-rule="evenodd" clip-rule="evenodd" fill="#D7293C" d="M162.688,278.664c-2.101-2.841-16.589,14.629-9.578,22.401 C160.122,308.836,168.384,286.371,162.688,278.664z"></path> <path fill-rule="evenodd" clip-rule="evenodd" fill="#D7293C" d="M172.078,289.702c-2.101-2.841-16.588,14.63-9.577,22.401 S177.774,297.41,172.078,289.702z"></path> <path fill-rule="evenodd" clip-rule="evenodd" fill="#D7293C" d="M184.95,274.873c-2.1-2.841-16.589,14.63-9.577,22.401 C182.384,305.045,190.647,282.58,184.95,274.873z"></path> <path fill-rule="evenodd" clip-rule="evenodd" fill="#D7293C" d="M185.041,296.583c-2.101-2.841-16.588,14.631-9.577,22.402 C182.475,326.756,190.737,304.291,185.041,296.583z"></path> <path fill-rule="evenodd" clip-rule="evenodd" fill="#D7293C" d="M199.559,288.792c-2.101-2.842-16.589,14.629-9.578,22.4 C196.993,318.963,205.256,296.498,199.559,288.792z"></path> <path fill-rule="evenodd" clip-rule="evenodd" fill="#D7293C" d="M206.4,308.043c-2.1-2.841-16.589,14.631-9.578,22.401 C203.834,338.216,212.097,315.751,206.4,308.043z"></path> <path fill-rule="evenodd" clip-rule="evenodd" fill="#D7293C" d="M212.481,288.292c-2.696-2.283-12.793,18.044-4.187,24 C216.902,318.249,219.793,294.488,212.481,288.292z"></path> <path fill-rule="evenodd" clip-rule="evenodd" fill="#D7293C" d="M222.981,296.96c-3.174-3.184-10.329,21.584-0.415,30.048 C232.479,335.472,231.59,305.592,222.981,296.96z"></path> <path fill-rule="evenodd" clip-rule="evenodd" fill="#D7293C" d="M216.36,317.536c-2.791-2.374-11.693,18.7-2.854,24.893 S223.931,323.975,216.36,317.536z"></path> <path fill-rule="evenodd" clip-rule="evenodd" fill="#D7293C" d="M237.069,299.376c-3.174-3.183-10.329,21.585-0.415,30.049 S245.677,308.009,237.069,299.376z"></path> <path fill-rule="evenodd" clip-rule="evenodd" fill="#DA483A" d="M169.862,215.98c3.999-2.052-17.409-16.417-28.492-9.555 C130.287,213.286,159.016,221.548,169.862,215.98z"></path> <path fill-rule="evenodd" clip-rule="evenodd" fill="#DA483A" d="M167.262,204.975c4.212-1.568-11.919-17.3-23.732-11.787 C131.718,198.701,155.837,209.23,167.262,204.975z"></path> <path fill-rule="evenodd" clip-rule="evenodd" fill="#DA483A" d="M167.625,193.042c4.212-1.569-12.373-16.812-24.186-11.299 C131.627,187.255,156.2,197.297,167.625,193.042z"></path> <path fill-rule="evenodd" clip-rule="evenodd" fill="#DA483A" d="M165.39,181.582c3.708-0.839-9.852-18.879-20.42-15.511 C134.401,169.439,155.332,183.858,165.39,181.582z"></path> <path fill-rule="evenodd" clip-rule="evenodd" fill="#DA483A" d="M166.767,168.14c3.713-0.739-10.105-17.693-20.676-14.678 S156.697,170.145,166.767,168.14z"></path> <path fill-rule="evenodd" clip-rule="evenodd" fill="#DA483A" d="M167.131,159.021c3.766,0.388-4.444-19.885-15.434-20.118 C140.708,138.671,156.917,157.971,167.131,159.021z"></path> <path fill-rule="evenodd" clip-rule="evenodd" fill="#DA483A" d="M173.338,149.457c3.714,0.735-2.581-20.212-13.502-21.462 C148.916,126.744,163.266,147.463,173.338,149.457z"></path> <path fill-rule="evenodd" clip-rule="evenodd" fill="#DA483A" d="M183.894,139.333c3.714,0.734-2.581-20.212-13.502-21.462 S173.822,137.34,183.894,139.333z"></path> <path fill-rule="evenodd" clip-rule="evenodd" fill="#DA483A" d="M183.878,173.194c3.784,0.131-5.78-19.54-16.76-19.027 C156.138,154.679,173.617,172.836,183.878,173.194z"></path> <path fill-rule="evenodd" clip-rule="evenodd" fill="#DA483A" d="M186.847,189.299c3.784,0.132-5.78-19.54-16.76-19.027 C159.107,170.785,176.586,188.942,186.847,189.299z"></path> <path fill-rule="evenodd" clip-rule="evenodd" fill="#DA483A" d="M195.656,202.415c2.821-2.525-15.632-10.953-23.199-2.98 C164.89,207.408,188.005,209.262,195.656,202.415z"></path> <path fill-rule="evenodd" clip-rule="evenodd" fill="#DA483A" d="M199.099,214.855c2.821-2.525-17.7-10.095-25.267-2.122 C166.265,220.705,191.449,221.703,199.099,214.855z"></path> <path fill-rule="evenodd" clip-rule="evenodd" fill="#DA483A" d="M189.858,125.566c3.556,1.298,0.56-20.369-10.038-23.285 C169.221,99.365,180.212,122.046,189.858,125.566z"></path> <path fill-rule="evenodd" clip-rule="evenodd" fill="#DD3D46" d="M247.285,182.069c3.782-0.16-7.265-19.037-18.173-17.682 C218.204,165.741,237.026,182.502,247.285,182.069z"></path> <path fill-rule="evenodd" clip-rule="evenodd" fill="#DD3D46" d="M249.081,196.512c3.782-0.16-7.264-19.037-18.173-17.683 C220,180.184,238.822,196.944,249.081,196.512z"></path> <path fill-rule="evenodd" clip-rule="evenodd" fill="#DD3D46" d="M258.255,169.985c4.822,0.363-5.228-26.363-19.324-26.222 C224.836,143.904,245.175,169.002,258.255,169.985z"></path> <path fill-rule="evenodd" clip-rule="evenodd" fill="#DD3D46" d="M252.745,149.756c4.089,0.644,3.059-26.513-9.24-27.202 C231.207,121.865,241.653,148.009,252.745,149.756z"></path> <path fill-rule="evenodd" clip-rule="evenodd" fill="#65140E" d="M151.411,275.722c0,0-7.911-1.28-10.338,5.062 C141.072,280.785,145.099,284.782,151.411,275.722z"></path> <path fill-rule="evenodd" clip-rule="evenodd" fill="#65140E" d="M140.625,244.696c0,0-7.857-1.579-10.521,4.667 C130.104,249.363,133.976,253.51,140.625,244.696z"></path> <path fill-rule="evenodd" clip-rule="evenodd" fill="#65140E" d="M161.933,252.421c0,0-7.174-3.571-11.374,1.766 C150.559,254.187,153.217,259.198,161.933,252.421z"></path> <path fill-rule="evenodd" clip-rule="evenodd" fill="#65140E" d="M160.15,282.688c0,0-7.458,2.934-6.31,9.627 C153.84,292.314,159.342,293.698,160.15,282.688z"></path> <path fill-rule="evenodd" clip-rule="evenodd" fill="#65140E" d="M169.606,294.987c0,0-7.458,2.934-6.31,9.627 C163.296,304.614,168.798,305.999,169.606,294.987z"></path> <path fill-rule="evenodd" clip-rule="evenodd" fill="#65140E" d="M184.088,300.53c0,0-6.776,4.278-4.395,10.639 C179.693,311.169,185.357,311.499,184.088,300.53z"></path> <path fill-rule="evenodd" clip-rule="evenodd" fill="#65140E" d="M202.731,313.065c0,0-5.873,5.452-2.362,11.266 C200.369,324.331,205.997,323.612,202.731,313.065z"></path> <path fill-rule="evenodd" clip-rule="evenodd" fill="#531518" d="M211.487,296.583c0,0-5.873,5.453-2.362,11.266 C209.125,307.849,214.753,307.13,211.487,296.583z"></path> <path fill-rule="evenodd" clip-rule="evenodd" fill="#531518" d="M179.987,281.373c0,0-6.33,4.916-3.343,11.015 C176.645,292.388,182.313,292.167,179.987,281.373z"></path> <path fill-rule="evenodd" clip-rule="evenodd" fill="#531518" d="M223.883,305.802c0,0-4.901,6.34-0.487,11.5 C223.396,317.302,228.83,315.673,223.883,305.802z"></path> <path fill-rule="evenodd" clip-rule="evenodd" fill="#400709" d="M169.748,159.194c1.044-2.768,9.389,2.291,6.93,6.691 C174.218,170.287,168.566,162.327,169.748,159.194z"></path> <path fill-rule="evenodd" clip-rule="evenodd" fill="#400709" d="M172.237,176.842c0.111-2.956,9.63-0.808,8.695,4.146 C179.997,185.943,172.11,180.188,172.237,176.842z"></path> <path fill-rule="evenodd" clip-rule="evenodd" fill="#400709" d="M231.766,169.445c0.111-2.956,9.63-0.809,8.695,4.146 C239.525,178.545,231.639,172.791,231.766,169.445z"></path> <path fill-rule="evenodd" clip-rule="evenodd" fill="#400709" d="M235.824,186.012c0.112-2.956,9.631-0.809,8.696,4.146 C243.584,195.112,235.698,189.357,235.824,186.012z"></path> <path fill-rule="evenodd" clip-rule="evenodd" fill="#400709" d="M228.9,196.112c0.111-2.956,9.63-0.809,8.695,4.146 S228.774,199.457,228.9,196.112z"></path> <path fill-rule="evenodd" clip-rule="evenodd" fill="#400709" d="M240.753,150.324c0.972-3.391,9.388,2.605,7.049,8.013 C245.461,163.744,239.653,154.161,240.753,150.324z"></path> <path fill-rule="evenodd" clip-rule="evenodd" fill="#400709" d="M246.905,133.665c0.84-3.388,8.201,2.629,6.174,8.03 C251.049,147.097,245.955,137.5,246.905,133.665z"></path> <path fill-rule="evenodd" clip-rule="evenodd" fill="#400709" d="M147.123,170.94c-0.829-2.84,8.88-3.813,9.56,1.183 C157.363,177.119,148.061,174.154,147.123,170.94z"></path> <path fill-rule="evenodd" clip-rule="evenodd" fill="#400709" d="M145.638,188.141c-2.062-2.162,5.604-4.519,8.578-0.589 C157.19,191.48,147.971,190.586,145.638,188.141z"></path> <path fill-rule="evenodd" clip-rule="evenodd" fill="#400709" d="M150.43,198.361c-1.68-1.877,5.076-4.408,7.46-0.958 C160.274,200.854,152.332,200.486,150.43,198.361z"></path> <path fill-rule="evenodd" clip-rule="evenodd" fill="#400709" d="M148.304,210.599c-1.68-1.877,5.076-4.407,7.46-0.957 C158.148,213.093,150.206,212.724,148.304,210.599z"></path> <path fill-rule="evenodd" clip-rule="evenodd" fill="#400709" d="M160.192,134.356c-0.507-2.468,6.604-1.253,6.928,2.929 C167.444,141.467,160.766,137.15,160.192,134.356z"></path> <path fill-rule="evenodd" clip-rule="evenodd" fill="#400709" d="M178.117,202.975c-1.67-0.971,2.647-3.325,5.204-1.458 C185.879,203.383,180.007,204.075,178.117,202.975z"></path> <path fill-rule="evenodd" clip-rule="evenodd" fill="#400709" d="M148.837,156.384c-0.054-2.55,7.851-0.836,7.328,3.447 C155.643,164.115,148.898,159.269,148.837,156.384z"></path> <path fill-rule="evenodd" clip-rule="evenodd" fill="#400709" d="M153.554,144.741c0.496-2.501,7.847,0.873,6.416,4.943 C158.537,153.756,152.993,147.572,153.554,144.741z"></path> <path fill-rule="evenodd" clip-rule="evenodd" fill="#400709" d="M180.566,109.173c0.496-2.501,7.848,0.873,6.416,4.944 C185.55,118.188,180.005,112.004,180.566,109.173z"></path> <path fill-rule="evenodd" clip-rule="evenodd" fill="#3D4919" d="M290.871,77.155c12.293-1.293,22.817-1.159,35.827-0.038 c73.634,6.345,127.68,78.059,120.618,160.045c-1.59,18.475-6.152,35.905-13.105,51.75c-32.413,60.062-59.418,78.72-133.42,78.383 c-8.278-0.037-14.296,0.729-22.844-0.813c-4.541-5.173-10.788-13.62-16.083-21.33c-26.007-37.876-21.075-93.585-21.356-123.107 c-0.282-29.521,6.342-56.721,18.268-97.867C265.644,100.478,280.955,84.321,290.871,77.155z"></path> <path fill-rule="evenodd" clip-rule="evenodd" fill="#A6AA6B" d="M309.032,76.233c4.198-0.276,7.713,0.36,11.985,0.528 c0.306,1,0.424,2.15,0.107,3.367c-0.983,3.78-8.181,3.661-8.181,3.661s1.967,1.568,3.03,7.258c1.063,5.689-6.154,0.682-6.154,0.682 s1.926,2.019,0.114,8.087c-1.812,6.068-7.817-2.359-7.817-2.359s-2.927,6.08-9.522,5.983c-5.492-0.08-0.565-3.017,1.238-3.997 c0.396-0.114,0.598-0.315,0.598-0.315s-0.236,0.118-0.598,0.315c-0.92,0.265-2.883,0.061-5.778-4.222 c-4.142-6.128,8.938-9.101,8.938-9.101c-1.085-3.682,6.812-2.996,8.481-2.671c1.669,0.326,2.033-3.125,1.291-4.949 C306.582,78.05,307.955,76.805,309.032,76.233z"></path> <path fill-rule="evenodd" clip-rule="evenodd" fill="#A2A554" d="M243.897,276.855c1.6,3.026,2.069-0.817,2.069-0.817 S245.099,276.265,243.897,276.855z M243.897,276.855c-0.6-1.134-1.359-3.234-2.312-6.865c-3.496-13.314,7.899-17.468,7.899-17.468 s0.858-0.13-5.586-8.985c-6.445-8.854-1.744-14.055,1.829-25.535c3.574-11.479,10.126-11.349,10.126-11.349 s-0.146-1.683-6.543-13.917c-6.395-12.233,8.081-12.198,8.081-12.198l-4.621-5.453c-4.744-6.531,8.668-7.105,8.668-7.105 l-5.615-5.87c-2.273-5.403,6.394-4.873,6.394-4.873c1.521-6.719,5.26-2.833,5.26-2.833l0.664-3.624c0,0-4.311-3.268-9.427-11.251 c-5.116-7.984,7.748-9.694,7.748-9.694c0.056-3.076,2.374-3.796,2.374-3.796c3.811-4.744,12.441-2.972,12.441-2.972l-5.834-4.408 c-1.329-8.979,16.132-8.327,16.132-8.327c-1.076-4.917,9.804-6.26,9.804-6.26s8.113,1.998,11.668,8.325 c3.556,6.326-11.851,13.66-11.851,13.66c10.328,3.685,5.572,14.715,5.572,14.715c3.438,9.789-9.459,16.873-9.459,16.873 c0.177,7.675-8.189,7.22-8.189,7.22c8.731,6.729-3.938,19.589-3.938,19.589c3.806,10.762-2.295,11.832-2.295,11.832 c2.334,8.723-1.816,8.91-1.816,8.91c12.967,6.028-3.718,23.84-3.718,23.84c0.818,6.637-10.064,4.092-10.064,4.092l4.527,5.752 c11.619,1.258,6.14,16.57,6.14,16.57c5.388,5.104-4.64,14.797-4.64,14.797c2.785,6.984-6.003,13.255-6.003,13.255 s4.268,11.057,5.335,20.984s-6.094,5.548-4.479,6.692c1.614,1.146,2.308,2.851,5.479,11.961c3.171,9.109-3.007,11.025-3.007,11.025 s2.087,3.475,4.879,8.853c2.792,5.379,2.948,16.35,2.948,16.35l-8.091-7.946c0,0-3.937-3.177-9.383-7.56 c-4.822-7.293-8.537-15.214-11.394-23.46c1.014-1.74,1.977-2.833,1.977-2.833s-1.902-1.753-4.569-5.558 c-3.024-11.039-4.719-22.461-5.648-33.581C242.25,277.74,243.141,277.226,243.897,276.855z"></path> <path fill-rule="evenodd" clip-rule="evenodd" fill="#DFCF6F" d="M299.588,108.399c0,0-6.694-2.576-4.046,4.605 c0,0-12.014-1.603-6.376,10.21c0,0-9.641-1.749-6.386,4.971l3.498,4.872c0,0-6.968-0.38-7.081,5.042c0,0-1.637-0.609-5.047,0.067 c0,0-7.901,1.36-2.674,8.364l4.377,2.995c0,0-3.795,0.24-5.526,4.173c0,0-1.537,1.574,0.831,5.81c0,0-7.829-5.273-8.96,2.38 c0,0-0.763,3.234,3.28,6.958c0,0-12.035-0.868-8.151,4.769c0,0,8.433,2.55,5.911,6.298c-2.521,3.748-12.323,1.088-6.716,10.216 c0,0-9.271,2.613-2.538,9.36l5.052,5.719c0,0-8.891,1.572-3.764,7.642c0,0-8.499,2.44-3.932,9.004c0,0-9.553,0.75-4.237,8.524 c0,0-7.176,2.899-0.445,9.375c0,0,1.574,10.671,9.562,6.95c0,0-11.332,1.089-9.359,14.901c0,0-3.126,4.612,3.868,9.636 c0,0-1.43-0.361-2.18,9.437c-0.748,9.798,2.637,10.374,2.637,10.374s-6.287-0.553-2.855,7.392c0,0,0.051,6.939,7.131,10.231 c0,0-8.685,5.112-0.244,13.52c0,0-0.635,10.441,8.548,16.466c0,0,0.55,3.844,6.699,8.083c0,0,6.825-5.59,0.39-11.275 c0,0,8.47-22.183-8.017-25.042c0,0,9.264-6.966,2.918-14.65c0,0,8.706-15.314-4.934-16.183c0,0,25.244-6.183,7.837-23.992 c0,0,18.324-15.505-1.113-19.013c0,0,1.148-5.997-4.657-7.274c0,0,21.216,0.896,18.13-7.753c0,0,7.047-19.98-8.271-12.456 c0,0,8.427-10.889-0.824-12.042c0,0,10.703-0.022,7.858-6.136c0,0,6.676-10.611-2.633-10.459c0,0,15.948-12.85,2.622-13.534 c0,0,8.852-0.121,6.761-7.464c0,0,10.697,1.496,7.405-6.799c0,0,14.237-12.718,6.165-16.57l-6.356-1.259c0,0,9.517-7.655,4.138-9.48 c0,0,9.113-4.064,3.396-6.994S306.716,107.932,299.588,108.399z"></path> <path fill-rule="evenodd" clip-rule="evenodd" fill="#A2A554" d="M318.079,171.363c-4.98-4.581,0.608-11.342,0.608-11.342 c-23.775-12.57,2.298-19.682,2.298-19.682c-15.658-17.881,0.815-15.858,0.815-15.858c-5.102-9.718,5.442-8.703,5.442-8.703 c-14.438-10.428-0.478-14.854-0.478-14.854c5.014-10.48,0.804-10.852,0.804-10.852c-7.277-7.797,7.67-9.206,7.67-9.206 c7.158,5.479-1.186,17.502-1.186,17.502c13.67-4.126,5.9,12.103,5.9,12.103c9.014-2.447,4.857,12.518,4.857,12.518 c3.405,5.389-6.258,7.288-6.258,7.288c7.037,3.983,1.117,8.288,1.117,8.288c9.417,4.179-0.762,9.395-0.762,9.395 c8.371,5.38-4.938,11.083-4.938,11.083c11.27,1.775,7.572,18.111,7.572,18.111c11.57,19.403-9.494,17.871-9.494,17.871 c8.016,2.456,0.713,9.494,0.713,9.494c10.574,0.962,3.627,9.986,3.627,9.986c11.171,4.864,2.35,19.588,2.35,19.588 c7.733,6.618-10.924,15.43-10.924,15.43c4.752,5.084-0.323,8.766-0.323,8.766c10.949,6.283-2.052,17.304-2.052,17.304 c7.84,5.463-5.455,20.264-5.455,20.264c13.889,11.111-4.535,20.446-4.535,20.446c6.426,12.313-4.381,13.404-4.381,13.404 s2.882,0.576,1.542,7.868c-1.342,7.292-9.717,8.605-9.717,8.605s-0.575,6.75-2.5,12.199c-0.886,2.505-3.089,6.155-5.355,8.726 c-2.189-0.133-4.362-0.337-6.519-0.604c-0.895-5.396,0.604-7.351,2.562-10.549c2.139-3.492,1.491-8.514,1.491-8.514 c-12.265-9.422-2.17-18.037-2.17-18.037c-5.702-7.287-0.781-8.782-0.781-8.782c-1.592-8.419,9.577-9.58,9.577-9.58 c-12.902-0.926-5.696-1.757-8.246-13.361c-1.404-6.388,2.276-9.282,5.87-10.593c1.587-0.012,3.503-0.343,5.811-1.087 c0,0-2.875,0.016-5.811,1.087c-11.017,0.076-6.165-15.279-6.165-15.279c-10.884-13.286,15.451-15.982,15.451-15.982 c-14.113-8.624,2.81-15.677,2.81-15.677c-15.88,4.676-2.175-13.788-2.175-13.788c-12.7-6.804,0.132-12.854,0.132-12.854 c-4.598-8.749,5.858-5.936,5.858-5.936l-5.424-6.249c-4.941-8.15,7.706-10.222,7.706-10.222c-9.521-1.286-7.952-12.021-7.952-12.021 C310.517,171.096,314.921,170.441,318.079,171.363c0.944,0.868,2.267,1.658,4.078,2.308 C322.157,173.671,320.477,172.062,318.079,171.363z"></path> <path fill-rule="evenodd" clip-rule="evenodd" fill="#DFCF6F" d="M330.967,103.242c0,0-7.791,3.223-2.022,9.053 c0,0-0.411,4.872,3.535,7.097c0,0-12.731-1.457-5.861,6.895c0,0-7.551,4.229-0.233,12.831c0,0-12.531,2.284-8.744,9.583 c0,0-6.265,6.596,0.736,10.377c0,0-2.243,12.168,5.316,12.872c0,0-4.548,4.033-1.079,7.829c0,0-20.112-3.749-7.195,10.432 c0,0-10.42,10.967-2.077,17.681c0,0-10.049,8.835-1.134,12.585c0,0-11.233,5.478-2.398,9.227c0,0-7.326,15.74,1.733,11.377 c0,0-13.861,6.086-4.307,12.601c0,0,4.74,2.812-0.308,10.217c0,0-32.615,13.242-2.082,18.372c0,0-2.201,6.649,3.839,8.077 c0,0-22.476-0.5-13.122,15.388c0,0-4.265,7.498,3.285,9.538c0,0-18.831,16.717-5.306,29.924c0,0,8.394,6.512,3.567,10.081 c-4.825,3.57-1.384,6.983-1.384,6.983s12.91-12.686,10.011-18.457c0,0,12.41-6.524,6.21-13.229c0,0,10.377-12.442,1.734-14.246 c0,0,6.805-19.928-2.846-15.899c0,0,4.082-6.523-0.819-5.657c0,0,13.483,1.83,11.969-9.302c0,0,7.893-14.207-2.218-13.549 c0,0,6.261-7.414-0.115-8.375c0,0,13.668-6.79,5.157-13.972c0,0,20.29-11.089,9.236-13.159c0,0-3.451-6.368-10.438-3.263 c0,0,17.394-8.802,7.011-13.021c0,0,6.219-8.064-0.599-13.304c0,0,8.714-12.084-1.337-12.393c0,0-0.366,3.76,5.729-3.877 c0,0,10.373-4.973,1.119-12.59c0,0,9.876-21.095-4.416-16.696c0,0,2.605-3.946-1.667-4.178c0,0,16.85-5.082,5.971-11.242 c0,0,10.63-12.148,1.56-15.762c0,0,6.386-3.915,1.183-6.114c0,0,7.562-6.423,2.478-7.619c0,0,2.229-9.775-5.021-5.826 C335.618,110.533,337.928,99.298,330.967,103.242z"></path> <path fill-rule="evenodd" clip-rule="evenodd" fill="#A2A554" d="M356.113,83.389c3.534,1.228,6.998,2.615,10.387,4.153 c3.862,7.071,2.587,19.729,2.587,19.729l5.681,4.31c14.538-0.127,8.712,18.972,8.712,18.972c11.824,6.39,1.606,17.098,1.606,17.098 c9.572,4.137,3.627,18.016,3.627,18.016c14.19,7.656-3.324,25.852-3.324,25.852c7.929,2.256,2.056,10.05,2.056,10.05 c8.603-6.079,4.652,16.453,4.652,16.453c4.941,8.124-12.08,12.769-12.08,12.769c4.299,2.449,1.584,6.044,1.584,6.044 c7.02,8.545,1.596,20.385,1.596,20.385c4.728,6.023-8.779,20.813-8.779,20.813c8.966,12.926-7.914,28.865-7.914,28.865 c4.985,11.313-11.64,22.167-11.64,22.167c0.062,9.847-20.835,21.021-20.835,21.021c-3.698,7.338-3.409,4.204-11.034,10.795 c-7.626,6.589-14.761,1.291-14.761,1.291c4.731-13.896,13.59-14.182,13.59-14.182c-1.47-12.366,9.348-12.498,9.348-12.498 c-5.058-13.39,8.97-20.124,8.97-20.124c-7.815-11.482,3.565-22.807,3.565-22.807c-13.396-15.59,7.782-33.386,7.782-33.386 c-6.52-20.783,12.708-24.718,12.708-24.718c-25.835-18.136-1.482-37.504-1.482-37.504c-6.104-8.052,1.948-11.351,1.948-11.351 c-12.215,4.715-5.797-13.754-5.797-13.754c-8.259-6.33,1.947-12.66,1.947-12.66c-3.351-8.64,5.569-8.719,5.569-8.719 c-9.078-5.401,1.52-11.45,1.52-11.45c-10.951-5.195-1.296-14.739-1.296-14.739c-12.434-4.241-4.905-18.839-4.905-18.839 c-14.86-6.875-8.201-21.079-8.201-21.079C354.423,83.946,355.293,83.623,356.113,83.389z"></path> <path fill-rule="evenodd" clip-rule="evenodd" fill="#DFCF6F" d="M359.738,84.714c1.617,0.62,3.218,1.273,4.802,1.96 c4.097,4.792,2.351,16.651,2.351,16.651c-3.306,7.07-5.599-0.906-5.599-0.906c5.434-9.668-3.048-17.486-3.048-17.486 C358.771,84.813,359.27,84.742,359.738,84.714z"></path> <path fill-rule="evenodd" clip-rule="evenodd" fill="#DFCF6F" d="M368.436,112.735c0,0-6.225,4.254,0.144,10.306 c0,0-5.066,6.734,0.929,11.939c0,0,4.329,0.867,2.891,7.544c0,0-8.302,7.442-2.245,13.665c0,0-6.479,6.352-1.905,11.825 c0,0-9.688,8.799-2.15,11.922c0,0-3.112,9.142,3.994,8.335c0,0-6.514,2.566-1.197,8.437c0,0-12.349,3.612-6.458,12.782 c0,0-8.977,20.042,1.799,18.15c0,0-4.856,5.257,1.731,7.786c0,0-9.621,2.835-7.369,13.595c0,0-8.585,2.232-5.857,12.269 c0,0-19.75,11.96-8.491,27.645c0,0-6.088,6.372,0.018,11.528c0,0-7.667,7.034-2.257,17.613c0,0-1.23,1.514-3.14,11.883 c0,0-7.276-2.444-3.552,7.867c0,0-4.791,0.48-9.21,6.993c0,0-7.322,2.934-9.118,14.862c0,0,6.826,1.408,12.353-7.151l6.078-6.246 c0,0,14.648-4.455,12.97-12.97c0,0,6.003-1.557,4.312-8.112c0,0,11.206-2.762,6.473-12.928c0,0,7.542,0.243,2.211-9.214 c0,0,12.068-1.61,6.029-11.688c0,0,10.523-12.497-0.306-14.715c0,0,6.616-4.818,2.109-8.027c0,0,16.893-5.085,8.322-12.375 c0,0,6.783-9.783-0.848-14.677c0,0,8.522-5.513,0.104-12.777c0,0,12.114-6.161,6.488-15.189c0,0,12.235-17.671-0.686-15.654 c0,0,7.261-8.093-1.879-9.104c0,0,22.298-6.543,4.625-21.098c0,0,8.681-17.573-4.294-18.714c0,0,4.857-5.685-0.263-8.044 c0,0,7.062-7.592,0.302-10.171c0,0,3.188-13.276-3.822-11.286C377.269,119.539,376.188,105.312,368.436,112.735z"></path> <path fill-rule="evenodd" clip-rule="evenodd" fill="#A2A554" d="M438.712,168.788c7.464,20.96,10.687,44.222,8.604,68.374 c-1.59,18.475-6.152,35.905-13.105,51.75c-20.956,38.825-39.648,60.351-70.235,70.626c2.26-1.667,4.967-3.741,7.845-6.108 c7.673-6.308,9.115-13.645,20.124-13.389c0,0,0.675-10.175,9.499-11.351c0,0,1.575-19.672,13.113-17.992 c0,0,2.763-14.509,10.099-18.564c0,0,1.033-17.909,7.799-22.199c0,0-0.378-15.068,4.247-18.235c0,0-3.988-11.481,3.562-15.821 c0,0-7.259-14.947,1.729-24.111c0,0-5.966-14.252-1.547-19.454c0,0-8.757-13.769-3.672-20.656L438.712,168.788z"></path> <path fill-rule="evenodd" clip-rule="evenodd" fill="#46541F" d="M297.047,186.707c0,0-8.142,3.017-0.526,7.869 c0,0-8.43,4.69-2.124,7.999c0,0-7.816,6.183-1.236,11.061c0,0-8.539,7.273-2.421,11.568c0,0-12.394,10.482-4.854,15.765 c0,0-9.256,7.333,0.31,14.339c0,0,9.456-3.668,6.147-11.718c0,0,5.612-7.458,3.143-15.305c0,0,4.497-8.165,2.73-14.047 c0,0,1.768-7.522,0.686-10.822c0,0,2.193-4.191,1.586-7.178C300.487,196.237,297.923,194.306,297.047,186.707z"></path> <path fill-rule="evenodd" clip-rule="evenodd" fill="#46541F" d="M300.439,176.685c0,0-6.354-8.869,1.992-14.388 C302.432,162.297,309.547,165.754,300.439,176.685z"></path> <path fill-rule="evenodd" clip-rule="evenodd" fill="#46541F" d="M352.322,126.473c0,0-10.409,9.097-1.321,18.49 c0,0-8.727,9.775-3.389,16.615c0,0-2.758,11.095,1.383,15.795c0,0,5.128-9.462,2.097-15.038c0,0,5.09-7.526,2.758-15.359 C353.85,146.976,355.915,135.17,352.322,126.473z"></path> <path fill-rule="evenodd" clip-rule="evenodd" fill="#46541F" d="M396.497,144.217c1.742-0.428,4.348,4.056,5.803,10.007 c1.46,5.951,1.226,11.13-0.518,11.558c-1.747,0.428-4.348-4.056-5.808-10.007C394.52,149.824,394.749,144.646,396.497,144.217z"></path> <path fill-rule="evenodd" clip-rule="evenodd" fill="#46541F" d="M402.434,163.091c1.37,0.179,1.829,5.271,1.029,11.364 c-0.794,6.093-2.552,10.894-3.921,10.715s-1.829-5.271-1.033-11.364C399.308,167.713,401.064,162.913,402.434,163.091z"></path> <path fill-rule="evenodd" clip-rule="evenodd" fill="#46541F" d="M401.639,183.939c1.337,0.175,1.949,3.941,1.365,8.404 c-0.589,4.463-2.146,7.945-3.48,7.771c-1.336-0.175-1.944-3.941-1.36-8.404C398.748,187.246,400.308,183.765,401.639,183.939z"></path> <path fill-rule="evenodd" clip-rule="evenodd" fill="#DFCF6F" d="M297.44,94.025c0,0,8.646,3.77,8.579-6.258 C306.02,87.768,300.798,79.816,297.44,94.025z"></path> <path fill-rule="evenodd" clip-rule="evenodd" fill="#A2A554" d="M332.749,365.923c2.595-2.266,6.021-5.442,8.422-8.36 c0,0,6.42-1.255,11.356-8.362c0,0,3.352-11.54,10.883-11.296c0,0,5.712-14.525,14.479-10.904c0,0-3.225-5.146,4.187-13.17 c0,0,3.15-10.089,9.95-14.752c0,0,1.651-11.934,6.98-18.169c0,0-3.17-12.692,3.17-24.319c0,0,0.393-10.939,7.129-8.784 c0,0-7.21-9.513,2.566-16.915c0,0-5.065-10.564,1.351-18.136c0,0-10.558-1.126-5.736-10.934c0,0-4.658-11.319,3.572-15.459 c0,0-11.583-21.458,1.039-20.605c0,0,2.058-13.796-4.999-16.341c0,0-10.975-11.457-0.096-13.021c0,0-11.95-3.633-11.056-14.135 c0,0-18.128-6.492-11.91-24.343c0,0,0.556,0.087,1.459,0.338c4.236,2.896,8.307,6.048,12.194,9.438 c0.938,1.832,1.623,3.998,1.91,6.552c0,0,1.599,7.287,9.777,15.506c0,0,7.852,4.277,8.264,16.927c0,0,1.824,7.028,5.405,14.591 c0,0,8.298,4.768,3.462,10.335c0,0,7.411,9.436-1.513,14.812c0,0,1.383,3.581-4.099,8.485c0,0,13.449,8.188,7.071,18.579 c0,0,5.286,13.223-2.777,18.73c0,0,11.022,10.294-3.011,24.594c0,0,5.113,9.107-7.129,17.846c0,0,3.768,4.304-3.635,12.228 c0,0,4.405,9.956-6.799,17.338c0,0-2.427,20.528-16.38,27.203c0,0-2.667,4.811-13.201,7.108c0,0-0.036,6.392-8.287,8.31 c0,0-4.903,5.633-14.223,10.18c0,0-7.791,2.951-17.927,8.706C333.986,365.792,333.369,365.859,332.749,365.923z"></path> <path fill-rule="evenodd" clip-rule="evenodd" fill="#DFCF6F" d="M344.564,359.229c0,0,7.529-11.551,12.602-10.58 c0,0,4.798-10.807,11.791-9.953c0,0,2.459-7.459,6.364-6.52c0,0,3.049-9.161,7.845-9.146c0,0-0.645-11.589,5.96-13.432 c0,0,1.3-9.101,5.226-9.112c0,0,1.174-6.905,4.917-8.069c0,0-1.331-18.721,6.12-20.257c0,0-1.035-23.354,5.027-17.663 c0,0-0.235-6.519,3.763-4.721c0,0-8.537-12.837,0.556-17.547c0,0-3.979-11.894,1.881-13.829c0,0-5.946-7.688-1.057-10.226 c0,0-5.736-8.122-0.705-9.729c0,0-2.968-9.905,0.973-11.001c0,0-8.016-14.132-1.81-14.1c0,0-1.457-6.87,2.374-8.607 c0,0,0.536-5.862,2.687-6.676c0,0-9.729-7.876-5.444-11.137c0,0-4.017-7.164-1.105-8.068c0,0,4.663,3.664,3.725,8.396 c0,0,6.895,8.113,5.367,11.701c0,0,1.758,1.224,0.211,6.411c0,0,3.279,4.043,0.12,7.409c0,0,2.571,5.73-0.667,9.237 c0,0,0.164,4.206-0.976,5.191c0,0,2.954,3.202-0.833,6.254c0,0,2.217,2.584-0.437,6.86c0,0,12.928,2.823,3.605,11.662 c0,0,2.442,1.095-0.603,4.926c0,0,10.332,8.848,2.264,13.515c0,0,2.266,5.169-2.169,8.608c0,0,7.389,8.688-1.699,14.181 c0,0,1.308,1.657-2.997,4.509c0,0,2.896,10.492-4.76,14.009c0,0,2.208,9.188-2.681,12.515c0,0,6.114,10.62-4.567,18.091 c0,0-2.131,6.179-6.929,8.104c0,0,1.604,5.265-4.567,8.075c0,0-0.244,10.481-6.638,11.766c0,0-3.262,6.234-8.609,6.668 c0,0,0.145,2.577-6.673,4.354c0,0-5.581,8.184-9.167,8.413C362.849,349.712,351.39,357.463,344.564,359.229z"></path> </svg>